<?xml version="1.0" standalone="no"?><!DOCTYPE svg PUBLIC "-//W3C//DTD SVG 1.1//EN" "http://www.w3.org/Graphics/SVG/1.1/DTD/svg11.dtd"><svg t="1649151646850" class="icon" viewBox="0 0 1024 1024" version="1.1" xmlns="http://www.w3.org/2000/svg" p-id="5090" width="20" height="20" xmlns:xlink="http://www.w3.org/1999/xlink"><defs><style type="text/css">@font-face { font-family: feedback-iconfont; src: url("//at.alicdn.com/t/font_1031158_u69w8yhxdu.woff2?t=1630033759944") format("woff2"), url("//at.alicdn.com/t/font_1031158_u69w8yhxdu.woff?t=1630033759944") format("woff"), url("//at.alicdn.com/t/font_1031158_u69w8yhxdu.ttf?t=1630033759944") format("truetype"); }
</style></defs><path d="M445.984 864 64 864C64.224 680 183.616 524.064 348.832 469.28 292.544 428.736 256 362.592 256 288 256 164.384 356.384 64 480 64 603.616 64 704 164.384 704 288 704 356.768 672.96 418.304 624.032 459.264 503.936 493.952 416 604.8 416 736 416 781.952 426.784 825.44 445.984 864Z" p-id="5091" fill="#1296db"></path><path d="M700.096 800.0128 747.904 847.8208C772.608 872.8128 772.512 913.1328 747.616 938.0288 722.656 962.9888 682.08 962.9888 657.12 938.0288L498.72 779.6288C473.76 754.6688 473.76 714.0928 498.72 689.1328L657.12 530.7328C682.08 505.7408 722.656 505.7408 747.616 530.7328 772.608 555.6928 772.608 596.2688 747.616 621.2288L696.864 672.0128 864 672.0128C899.136 672.2368 928 700.8128 928 736.0128 928 771.2768 899.36 799.9488 864 800.0128L700.096 800.0128Z" p-id="5092" fill="#1296db"></path></svg>