<?xml version="1.0" standalone="no"?><!DOCTYPE svg PUBLIC "-//W3C//DTD SVG 1.1//EN" "http://www.w3.org/Graphics/SVG/1.1/DTD/svg11.dtd"><svg t="1649151629736" class="icon" viewBox="0 0 1024 1024" version="1.1" xmlns="http://www.w3.org/2000/svg" p-id="4843" width="20" height="20" xmlns:xlink="http://www.w3.org/1999/xlink"><defs><style type="text/css">@font-face { font-family: feedback-iconfont; src: url("//at.alicdn.com/t/font_1031158_u69w8yhxdu.woff2?t=1630033759944") format("woff2"), url("//at.alicdn.com/t/font_1031158_u69w8yhxdu.woff?t=1630033759944") format("woff"), url("//at.alicdn.com/t/font_1031158_u69w8yhxdu.ttf?t=1630033759944") format("truetype"); }
</style></defs><path d="M445.9776 864 63.9936 864C64.2176 680 183.6096 524.064 348.8256 469.28 292.5376 428.736 255.9936 362.592 255.9936 288 255.9936 164.384 356.3776 64 479.9936 64 603.6096 64 703.9936 164.384 703.9936 288 703.9936 356.768 672.9536 418.304 624.0256 459.264 503.9296 493.952 415.9936 604.8 415.9936 736 415.9936 781.952 426.7776 825.44 445.9776 864Z" p-id="4844" fill="#1296db"></path><path d="M707.888 800.0128 660.08 847.8208C635.376 872.8128 635.472 913.1328 660.368 938.0288 685.328 962.9888 725.904 962.9888 750.864 938.0288L909.264 779.6288C934.224 754.6688 934.224 714.0928 909.264 689.1328L750.864 530.7328C725.904 505.7408 685.328 505.7408 660.368 530.7328 635.376 555.6928 635.376 596.2688 660.368 621.2288L711.12 672.0128 543.984 672.0128C508.848 672.2368 479.984 700.8128 479.984 736.0128 479.984 771.2768 508.624 799.9488 543.984 800.0128L707.888 800.0128Z" p-id="4845" fill="#1296db"></path></svg>