<?xml version="1.0" standalone="no"?><!DOCTYPE svg PUBLIC "-//W3C//DTD SVG 1.1//EN" "http://www.w3.org/Graphics/SVG/1.1/DTD/svg11.dtd"><svg t="1641452843684" class="icon" viewBox="0 0 1024 1024" version="1.1" xmlns="http://www.w3.org/2000/svg" p-id="2199" width="48" height="48" xmlns:xlink="http://www.w3.org/1999/xlink"><defs><style type="text/css"></style></defs><path d="M478.1 437.8c-4.1 0-8.2-1.6-11.3-4.7l-67.9-67.9c-6.3-6.3-6.3-16.4 0-22.6s16.4-6.3 22.6 0l67.9 67.9c6.3 6.3 6.3 16.4 0 22.6-3.1 3.2-7.2 4.7-11.3 4.7z" fill="#0F82E4" p-id="2200"></path><path d="M478.1 437.8c-4.1 0-8.2-1.6-11.3-4.7-6.3-6.3-6.3-16.4 0-22.6l135.8-135.8c6.3-6.3 16.4-6.3 22.6 0s6.3 16.4 0 22.6L489.4 433.1c-3.1 3.2-7.2 4.7-11.3 4.7z" fill="#0F82E4" p-id="2201"></path><path d="M608 128h-32c-8.8 0-16-7.2-16-16s7.2-16 16-16h32c8.8 0 16 7.2 16 16s-7.2 16-16 16z" fill="#333333" p-id="2202"></path><path d="M848 432h-16V176c0-44.1-35.9-80-80-80h-96c-8.8 0-16 7.2-16 16s7.2 16 16 16h96c26.5 0 48 21.5 48 48v342.3L512 623 224 518.3V176c0-26.5 21.5-48 48-48h240c8.8 0 16-7.2 16-16s-7.2-16-16-16H272c-44.1 0-80 35.9-80 80v256h-16c-44.1 0-80 35.9-80 80v336c0 44.1 35.9 80 80 80h672c44.1 0 80-35.9 80-80V512c0-44.1-35.9-80-80-80z m48 416c0 26.5-21.5 48-48 48H176c-26.5 0-48-21.5-48-48V512c0-26.5 21.5-48 48-48h16v42.6l-26.5-9.6c-8.3-3-17.5 1.3-20.5 9.6-3 8.3 1.3 17.5 9.6 20.5l352 128c1.8 0.7 3.6 1 5.5 1 1.8 0 3.7-0.3 5.5-1l352-128c8.3-3 12.6-12.2 9.6-20.5S867 494 858.7 497l-26.5 9.6V464h16c26.5 0 48 21.5 48 48v336z" fill="#333333" p-id="2203"></path><path d="M816 848H208c-8.8 0-16-7.2-16-16s7.2-16 16-16h608c8.8 0 16 7.2 16 16s-7.2 16-16 16z" fill="#333333" p-id="2204"></path></svg>