<?xml version="1.0" standalone="no"?><!DOCTYPE svg PUBLIC "-//W3C//DTD SVG 1.1//EN" "http://www.w3.org/Graphics/SVG/1.1/DTD/svg11.dtd"><svg t="1641452571650" class="icon" viewBox="0 0 1024 1024" version="1.1" xmlns="http://www.w3.org/2000/svg" p-id="934" xmlns:xlink="http://www.w3.org/1999/xlink" width="64" height="64"><defs><style type="text/css"></style></defs><path d="M624 960H208c-44.1 0-80-35.9-80-80V176c0-44.1 35.9-80 80-80h64c8.8 0 16 7.2 16 16s-7.2 16-16 16h-64c-26.5 0-48 21.5-48 48v704c0 26.5 21.5 48 48 48h416c8.8 0 16 7.2 16 16s-7.2 16-16 16zM720 960h-32c-8.8 0-16-7.2-16-16s7.2-16 16-16h32c8.8 0 16 7.2 16 16s-7.2 16-16 16zM816 960h-32c-8.8 0-16-7.2-16-16s7.2-16 16-16h32c26.5 0 48-21.5 48-48V176c0-26.5-21.5-48-48-48h-64c-8.8 0-16-7.2-16-16s7.2-16 16-16h64c44.1 0 80 35.9 80 80v704c0 44.1-35.9 80-80 80zM656 128H368c-8.8 0-16-7.2-16-16s7.2-16 16-16h288c8.8 0 16 7.2 16 16s-7.2 16-16 16z" fill="#333333" p-id="935"></path><path d="M768 352H256c-8.8 0-16-7.2-16-16s7.2-16 16-16h512c8.8 0 16 7.2 16 16s-7.2 16-16 16zM768 544H256c-8.8 0-16-7.2-16-16s7.2-16 16-16h512c8.8 0 16 7.2 16 16s-7.2 16-16 16zM448 736H256c-8.8 0-16-7.2-16-16s7.2-16 16-16h192c8.8 0 16 7.2 16 16s-7.2 16-16 16zM320 176c-8.8 0-16-7.2-16-16V80c0-8.8 7.2-16 16-16s16 7.2 16 16v80c0 8.8-7.2 16-16 16zM704 176c-8.8 0-16-7.2-16-16V80c0-8.8 7.2-16 16-16s16 7.2 16 16v80c0 8.8-7.2 16-16 16z" fill="#333333" p-id="936"></path><path d="M769.1 610.8c-6.3-6.3-16.4-6.3-22.6 0L622.1 735.2l-56.6-56.6c-6.3-6.3-16.4-6.3-22.6 0s-6.3 16.4 0 22.6l67.9 67.9c3.1 3.1 7.2 4.7 11.3 4.7 4.1 0 8.2-1.6 11.3-4.7l135.8-135.8c6.2-6.2 6.2-16.3-0.1-22.5z" fill="#0F82E4" p-id="937"></path></svg>