<?xml version="1.0" standalone="no"?><!DOCTYPE svg PUBLIC "-//W3C//DTD SVG 1.1//EN" "http://www.w3.org/Graphics/SVG/1.1/DTD/svg11.dtd"><svg t="1641452591602" class="icon" viewBox="0 0 1024 1024" version="1.1" xmlns="http://www.w3.org/2000/svg" p-id="1151" xmlns:xlink="http://www.w3.org/1999/xlink" width="64" height="64"><defs><style type="text/css"></style></defs><path d="M312.7 626.9c-3.2 0-6.4-0.9-9.2-2.9l-49.8-34.8c-7.3-5.1-9-15-3.9-22.3 5.1-7.2 15-9 22.3-3.9l49.8 34.8c7.3 5.1 9 15 3.9 22.3-3.1 4.4-8.1 6.8-13.1 6.8z" fill="#333333" p-id="1152"></path><path d="M692.7 890.3c-3.2 0-6.3-1-9-2.8l-228-156.3c-7.3-5-9.1-15-4.1-22.2 5-7.3 15-9.1 22.2-4.1l209.5 143.6L872 170.2 114.1 452.4l103.1 72.1c7.3 5.1 9 15 3.9 22.3-5.1 7.3-15 9-22.3 3.9l-128-89.6c-4.9-3.4-7.5-9.2-6.7-15.1 0.8-5.9 4.7-10.9 10.3-13l815.8-303.8c5.6-2.1 12-0.9 16.4 3.2 4.4 4.1 6.2 10.3 4.6 16.1L708.1 878.6c-1.4 5-5.1 9-10 10.7-1.7 0.7-3.5 1-5.4 1z" fill="#333333" p-id="1153"></path><path d="M336.5 879.9c-3 0-6.1-0.9-8.8-2.7-7.4-4.9-9.4-14.8-4.5-22.2L392 751.2c4.9-7.4 14.8-9.4 22.2-4.5 7.4 4.9 9.4 14.8 4.5 22.2l-68.8 103.9c-3.1 4.6-8.2 7.1-13.4 7.1z" fill="#0F82E4" p-id="1154"></path><path d="M336 880c-8.8 0-16-7.2-16-16V736c0-52.1 21.7-92.3 42-112.6 24.2-24.2 120.8-118.5 347.5-315.4 6.7-5.8 16.8-5.1 22.6 1.6 5.8 6.7 5.1 16.8-1.6 22.6C504.6 528.3 408.7 622 384.6 646c-15 15.1-32.6 47.7-32.6 90v128c0 8.8-7.2 16-16 16z" fill="#0F82E4" p-id="1155"></path></svg>